<svg width="14" height="15" viewBox="0 0 14 15" fill="none" xmlns="http://www.w3.org/2000/svg">
<path d="M10.1445 4.38672C9.70703 3.98568 9.21484 3.6849 8.66797 3.48438C8.13932 3.26562 7.58333 3.15625 7 3.15625C5.94271 3.15625 4.99479 3.48438 4.15625 4.14062C3.33594 4.77865 2.79818 5.60807 2.54297 6.62891C2.52474 6.70182 2.48828 6.76562 2.43359 6.82031C2.37891 6.85677 2.30599 6.875 2.21484 6.875H0.65625C0.546875 6.875 0.455729 6.83854 0.382812 6.76562C0.328125 6.67448 0.309896 6.58333 0.328125 6.49219C0.528646 5.45312 0.947917 4.51432 1.58594 3.67578C2.22396 2.83724 3.00781 2.18099 3.9375 1.70703C4.88542 1.21484 5.90625 0.96875 7 0.96875C7.89323 0.96875 8.74089 1.13281 9.54297 1.46094C10.3451 1.78906 11.056 2.25391 11.6758 2.85547L12.6602 1.87109C12.7878 1.74349 12.9427 1.67969 13.125 1.67969C13.3073 1.67969 13.4622 1.74349 13.5898 1.87109C13.7174 1.9987 13.7812 2.15365 13.7812 2.33594V6C13.7812 6.18229 13.7174 6.33724 13.5898 6.46484C13.4622 6.59245 13.3073 6.65625 13.125 6.65625H9.46094C9.27865 6.65625 9.1237 6.59245 8.99609 6.46484C8.86849 6.33724 8.80469 6.18229 8.80469 6C8.80469 5.81771 8.86849 5.66276 8.99609 5.53516L10.1445 4.38672ZM0.875 8.84375H4.53906C4.72135 8.84375 4.8763 8.90755 5.00391 9.03516C5.13151 9.16276 5.19531 9.31771 5.19531 9.5C5.19531 9.68229 5.13151 9.83724 5.00391 9.96484L3.85547 11.1133C4.29297 11.5143 4.77604 11.8242 5.30469 12.043C5.85156 12.2435 6.41667 12.3438 7 12.3438C8.05729 12.3438 8.99609 12.0247 9.81641 11.3867C10.6549 10.7305 11.2018 9.89193 11.457 8.87109C11.4753 8.79818 11.5117 8.74349 11.5664 8.70703C11.6211 8.65234 11.694 8.625 11.7852 8.625H13.3438C13.4531 8.625 13.5352 8.67057 13.5898 8.76172C13.6628 8.83464 13.6901 8.91667 13.6719 9.00781C13.4714 10.0469 13.0521 10.9857 12.4141 11.8242C11.776 12.6628 10.9831 13.319 10.0352 13.793C9.10547 14.2852 8.09375 14.5312 7 14.5312C6.10677 14.5312 5.25911 14.3672 4.45703 14.0391C3.65495 13.7109 2.94401 13.2461 2.32422 12.6445L1.33984 13.6289C1.21224 13.7565 1.05729 13.8203 0.875 13.8203C0.692708 13.8203 0.53776 13.7565 0.410156 13.6289C0.282552 13.5013 0.21875 13.3464 0.21875 13.1641V9.5C0.21875 9.31771 0.282552 9.16276 0.410156 9.03516C0.53776 8.90755 0.692708 8.84375 0.875 8.84375Z" fill="url(#paint0_linear_3423_2048)"/>
<defs>
<linearGradient id="paint0_linear_3423_2048" x1="0" y1="0" x2="0" y2="16" gradientUnits="userSpaceOnUse">
<stop stop-color="#9E8FFF"/>
<stop offset="1" stop-color="#EBCBFF"/>
</linearGradient>
</defs>
</svg>
